<?xml version="1.0" encoding="utf-8"?>
<!-- Generator: Adobe Illustrator 16.0.0, SVG Export Plug-In . SVG Version: 6.00 Build 0)  -->
<!DOCTYPE svg PUBLIC "-//W3C//DTD SVG 1.1//EN" "http://www.w3.org/Graphics/SVG/1.1/DTD/svg11.dtd">
<svg version="1.1" id="icon_1_" xmlns="http://www.w3.org/2000/svg" xmlns:xlink="http://www.w3.org/1999/xlink" x="0px" y="0px"
	 width="270px" height="270px" viewBox="0 0 270 270" enable-background="new 0 0 270 270" xml:space="preserve">
<g id="Ellipse_5_copy">
	<g>
		<circle fill="#F7F7F7" cx="135" cy="135" r="132"/>
	</g>
</g>
<g id="Ellipse_12">
	<g>
		<circle fill="#F0F0F0" cx="25" cy="153" r="8"/>
	</g>
</g>
<g id="Ellipse_12_copy">
	<g>
		<circle fill="#F0F0F0" cx="41" cy="135" r="8"/>
	</g>
</g>
<g id="Ellipse_12_copy_2">
	<g>
		<circle fill="#F0F0F0" cx="57" cy="160" r="8"/>
	</g>
</g>
<g id="Ellipse_12_copy_36" opacity="0.451">
	<g>
		<path fill="#80D8FF" d="M91,152c0-4.418-3.582-8-8-8s-8,3.582-8,8s3.582,8,8,8S91,156.418,91,152z M92,177c-4.418,0-8,3.582-8,8
			s3.582,8,8,8s8-3.582,8-8S96.418,177,92,177z M133,155c0-4.418-3.582-8-8-8s-8,3.582-8,8s3.582,8,8,8S133,159.418,133,155z
			 M136,170c-4.418,0-8,3.582-8,8s3.582,8,8,8c4.418,0,8-3.582,8-8S140.418,170,136,170z M114,200c-4.418,0-8,3.582-8,8s3.582,8,8,8
			s8-3.582,8-8S118.418,200,114,200z M151,196c-4.418,0-8,3.582-8,8s3.582,8,8,8s8-3.582,8-8S155.418,196,151,196z M178,222
			c-4.418,0-8,3.582-8,8s3.582,8,8,8s8-3.582,8-8S182.418,222,178,222z M68,222c-4.418,0-8,3.582-8,8s3.582,8,8,8s8-3.582,8-8
			S72.418,222,68,222z"/>
	</g>
</g>
<g id="Ellipse_12_copy_7">
	<g>
		<circle fill="#F0F0F0" cx="159" cy="136" r="8"/>
	</g>
</g>
<g id="Ellipse_12_copy_8">
	<g>
		<circle fill="#F0F0F0" cx="186" cy="158" r="8"/>
	</g>
</g>
<g id="Ellipse_12_copy_9">
	<g>
		<circle fill="#F0F0F0" cx="209" cy="120" r="8"/>
	</g>
</g>
<g id="Ellipse_12_copy_10">
	<g>
		<circle fill="#F0F0F0" cx="234" cy="140" r="8"/>
	</g>
</g>
<g id="Ellipse_12_copy_11">
	<g>
		<circle fill="#F0F0F0" cx="242" cy="171" r="8"/>
	</g>
</g>
<g id="Ellipse_12_copy_12">
	<g>
		<circle fill="#E5E5E5" cx="210" cy="144" r="8"/>
	</g>
</g>
<g id="Ellipse_12_copy_13">
	<g>
		<circle fill="#E5E5E5" cx="159" cy="163" r="8"/>
	</g>
</g>
<g id="Ellipse_12_copy_14">
	<g>
		<circle fill="#E5E5E5" cx="103" cy="163" r="8"/>
	</g>
</g>
<g id="Ellipse_12_copy_15">
	<g>
		<circle fill="#E5E5E5" cx="70" cy="179" r="8"/>
	</g>
</g>
<g id="Ellipse_12_copy_16">
	<g>
		<circle fill="#E5E5E5" cx="41" cy="176" r="8"/>
	</g>
</g>
<g id="Ellipse_12_copy_17">
	<g>
		<circle fill="#E5E5E5" cx="40" cy="204" r="8"/>
	</g>
</g>
<g id="Ellipse_12_copy_18">
	<g>
		<circle fill="#E5E5E5" cx="90" cy="213" r="8"/>
	</g>
</g>
<g id="Ellipse_12_copy_37">
	<g>
		<circle fill="#E5E5E5" cx="97" cy="230" r="8"/>
	</g>
</g>
<g id="Ellipse_12_copy_38">
	<g>
		<circle fill="#E5E5E5" cx="133" cy="216" r="8"/>
	</g>
</g>
<g id="Ellipse_12_copy_39">
	<g>
		<circle fill="#E5E5E5" cx="162" cy="246" r="8"/>
	</g>
</g>
<g id="Ellipse_12_copy_19">
	<g>
		<circle fill="#E5E5E5" cx="141" cy="238" r="8"/>
	</g>
</g>
<g id="Ellipse_12_copy_20">
	<g>
		<circle fill="#E5E5E5" cx="196" cy="184" r="8"/>
	</g>
</g>
<g id="Ellipse_12_copy_21">
	<g>
		<circle fill="#E5E5E5" cx="218" cy="210" r="8"/>
	</g>
</g>
<g id="Ellipse_12_copy_22">
	<g>
		<circle fill="#E5E5E5" cx="254" cy="140" r="8"/>
	</g>
</g>
<g id="Ellipse_12_copy_23">
	<g>
		<circle fill="#E5E5E5" cx="16" cy="133" r="8"/>
	</g>
</g>
<g id="Ellipse_12_copy_24" opacity="0.502">
	<g>
		<circle fill="#39B54A" cx="68" cy="204" r="8"/>
	</g>
</g>
<g id="Ellipse_12_copy_25" opacity="0.502">
	<g>
		<circle fill="#39B54A" cx="125" cy="131" r="8"/>
	</g>
</g>
<g id="Ellipse_12_copy_26" opacity="0.502">
	<g>
		<circle fill="#39B54A" cx="178" cy="200" r="8"/>
	</g>
</g>
<g id="Ellipse_12_copy_27" opacity="0.502">
	<g>
		<circle fill="#39B54A" cx="210" cy="171" r="8"/>
	</g>
</g>
<g id="Ellipse_12_copy_28" opacity="0.502">
	<g>
		<circle fill="#39B54A" cx="23" cy="174" r="8"/>
	</g>
</g>
<g id="Ellipse_12_copy_29" opacity="0.502">
	<g>
		<circle fill="#39B54A" cx="202" cy="230" r="8"/>
	</g>
</g>
<g id="Ellipse_12_copy_30" opacity="0.502">
	<g>
		<circle fill="#39B54A" cx="117" cy="185" r="8"/>
	</g>
</g>
<g id="Ellipse_12_copy_31" opacity="0.502">
	<g>
		<circle fill="#39B54A" cx="60" cy="138" r="8"/>
	</g>
</g>
<g id="Ellipse_12_copy_32" opacity="0.502">
	<g>
		<circle fill="#39B54A" cx="109" cy="249" r="8"/>
	</g>
</g>
</svg>
