<?xml version="1.0" encoding="utf-8"?>
<!-- Generator: Adobe Illustrator 16.0.0, SVG Export Plug-In . SVG Version: 6.00 Build 0)  -->
<!DOCTYPE svg PUBLIC "-//W3C//DTD SVG 1.1//EN" "http://www.w3.org/Graphics/SVG/1.1/DTD/svg11.dtd">
<svg version="1.1" xmlns="http://www.w3.org/2000/svg" xmlns:xlink="http://www.w3.org/1999/xlink" x="0px" y="0px" width="150px"
	 height="150px" viewBox="0 0 150 150" enable-background="new 0 0 150 150" xml:space="preserve">
<g id="Ellipse_9_copy_1_" enable-background="new    ">
	<g id="Ellipse_9_copy">
		<g>
			<ellipse fill="#F3F3F3" cx="75.5" cy="74.531" rx="72.5" ry="72.519"/>
		</g>
	</g>
</g>
<g id="Rectangle_18_1_" enable-background="new    ">
	<g id="Rectangle_18">
		<g>
			<path fill="#252525" d="M77.714,67.029l1.766-7.002h4.06l0.146,0.827l32.499-5.731l-0.868-4.926L82.816,55.93l0.193,1.097h-2.774
				l0.757-3.001H81v-5.001H64l-4,5.001l-4-5.001H39v5.001h0.258l3.483,13.004h0.144l-7.771,29.007H35v5.002h51v-5.002h0.01
				l-7.922-29.007H77.714z M40.115,96.036l7.771-29.007h-0.144l-3.483-13.004H56l4,5.002l4-5.002h12.286l-3.278,13.004H72.99
				l7.922,29.007H40.115z"/>
		</g>
	</g>
</g>
</svg>
