<?xml version="1.0" encoding="utf-8"?>
<!-- Generator: Adobe Illustrator 16.0.0, SVG Export Plug-In . SVG Version: 6.00 Build 0)  -->
<!DOCTYPE svg PUBLIC "-//W3C//DTD SVG 1.1//EN" "http://www.w3.org/Graphics/SVG/1.1/DTD/svg11.dtd">
<svg version="1.1" id="icon_1_" xmlns="http://www.w3.org/2000/svg" xmlns:xlink="http://www.w3.org/1999/xlink" x="0px" y="0px"
	 width="270px" height="270px" viewBox="0 0 270 270" enable-background="new 0 0 270 270" xml:space="preserve">
<g id="Ellipse_5">
	<g>
		<circle fill="#F7F7F7" cx="135" cy="135" r="132"/>
	</g>
</g>
<g id="Polygon_1_copy_4">
	<g>
		<path fill="#E5E5E5" d="M90.125,119.67c2.954,0,5.349-2.389,5.349-5.335S93.08,109,90.125,109c-2.954,0-5.348,2.389-5.348,5.335
			S87.172,119.67,90.125,119.67z M90.125,109.82c2.5,0,4.526,2.021,4.526,4.515s-2.026,4.514-4.526,4.514
			c-2.499,0-4.525-2.021-4.525-4.514S87.626,109.82,90.125,109.82z M90.125,182.868c-2.954,0-5.348,2.389-5.348,5.335
			s2.395,5.335,5.348,5.335c2.954,0,5.349-2.389,5.349-5.335S93.08,182.868,90.125,182.868z M90.125,192.717
			c-2.499,0-4.525-2.021-4.525-4.514s2.026-4.515,4.525-4.515c2.5,0,4.526,2.021,4.526,4.515S92.625,192.717,90.125,192.717z
			 M151.014,147.576L130.47,159.43l-19.365-10.456v-23.762l-14.57-8.407c-0.092,0.217-0.194,0.428-0.306,0.634l14.088,8.145v23.235
			l-17.725,10.247h-0.41v0.237l-1.961,1.134l-2.153-1.244v-0.127H87.85l-17.726-10.247v-23.235l13.339-7.711
			c-0.144-0.226-0.273-0.459-0.392-0.7l-13.52,7.801l-20.571-11.87l-20.983,12.107v24.214l20.983,12.107l20.571-11.87l17.695,10.21
			v21.354h0.823v-20.879l2.054,1.186l2.061-1.189v20.883h0.823v-21.357l17.668-10.194l19.356,10.451v23.771l20.983,12.107
			l20.983-12.107v-24.214L151.014,147.576z M69.175,148.819l-20.097,11.618l-20.097-11.618v-23.235l20.097-11.618l20.097,11.618
			V148.819z M171.209,183.291l-20.097,11.618l-20.097-11.618v-23.235l20.097-11.618l20.097,11.618V183.291z"/>
	</g>
</g>
<g id="Polygon_1_copy_6">
	<g>
		<path fill="#E6897D" d="M163.125,147.132c2.955,0,5.35-2.389,5.35-5.335s-2.395-5.335-5.35-5.335
			c-2.953,0-5.348,2.389-5.348,5.335S160.172,147.132,163.125,147.132z M163.125,137.283c2.5,0,4.526,2.021,4.526,4.514
			s-2.026,4.515-4.526,4.515c-2.498,0-4.525-2.021-4.525-4.515S160.627,137.283,163.125,137.283z M224.014,133.995l-20.983,12.107
			v23.771l-19.356,10.451l-17.668-10.194v-21.357h-0.823v20.883l-2.061-1.189l-2.054,1.185v-20.878h-0.822v21.353l-17.695,10.21
			l-20.571-11.869l-20.983,12.107v24.214l20.983,12.107l20.571-11.87l13.52,7.802c0.119-0.241,0.249-0.475,0.393-0.7l-13.339-7.711
			v-23.235l17.725-10.247h0.22v-0.127l2.152-1.244l1.962,1.134v0.237h0.41l17.726,10.247v23.235l-14.089,8.145
			c0.111,0.206,0.214,0.418,0.306,0.635l14.57-8.407v-23.762l19.365-10.456l20.543,11.854l20.983-12.107v-24.214L224.014,133.995z
			 M142.175,204.416l-20.097,11.618l-20.097-11.618v-23.235l20.097-11.618l20.097,11.618V204.416z M244.209,169.944l-20.097,11.618
			l-20.097-11.618v-23.235l20.097-11.618l20.097,11.618V169.944z M163.125,210.33c-2.953,0-5.348,2.389-5.348,5.335
			s2.395,5.335,5.348,5.335c2.955,0,5.35-2.389,5.35-5.335S166.08,210.33,163.125,210.33z M163.125,220.18
			c-2.498,0-4.525-2.021-4.525-4.515s2.027-4.514,4.525-4.514c2.5,0,4.526,2.021,4.526,4.514S165.625,220.18,163.125,220.18z"/>
	</g>
</g>
<g id="Polygon_1_copy_7">
	<g>
		<path fill="#FDC131" d="M135.125,60.67c2.955,0,5.35-2.389,5.35-5.335S138.08,50,135.125,50c-2.953,0-5.348,2.389-5.348,5.335
			S132.172,60.67,135.125,60.67z M135.125,50.82c2.5,0,4.526,2.021,4.526,4.515s-2.026,4.514-4.526,4.514
			c-2.499,0-4.525-2.021-4.525-4.514S132.626,50.82,135.125,50.82z M135.125,123.868c-2.953,0-5.348,2.389-5.348,5.335
			s2.395,5.335,5.348,5.335c2.955,0,5.35-2.389,5.35-5.335S138.08,123.868,135.125,123.868z M135.125,133.717
			c-2.499,0-4.525-2.021-4.525-4.514s2.026-4.515,4.525-4.515c2.5,0,4.526,2.021,4.526,4.515S137.625,133.717,135.125,133.717z
			 M196.014,88.576l-20.543,11.854l-19.365-10.456V66.212l-14.57-8.407c-0.092,0.217-0.194,0.428-0.306,0.634l14.089,8.145v23.235
			l-17.726,10.247h-0.41v0.237l-1.962,1.134l-2.152-1.244v-0.127h-0.219l-17.725-10.247V66.584l13.338-7.711
			c-0.143-0.226-0.273-0.459-0.392-0.7l-13.52,7.801l-20.571-11.87L72.996,66.212v24.214l20.983,12.107l20.571-11.87l17.695,10.21
			v21.353h0.823v-20.878l2.054,1.185l2.061-1.189v20.882h0.823v-21.357l17.668-10.194l19.356,10.451v23.771l20.983,12.107
			l20.983-12.107v-24.214L196.014,88.576z M114.175,89.819l-20.097,11.618L73.981,89.819V66.584l20.097-11.618l20.097,11.618V89.819
			z M216.209,124.291l-20.097,11.618l-20.097-11.618v-23.235l20.097-11.618l20.097,11.618V124.291z"/>
	</g>
</g>
</svg>
