<?xml version="1.0" encoding="utf-8"?>
<!-- Generator: Adobe Illustrator 16.0.0, SVG Export Plug-In . SVG Version: 6.00 Build 0)  -->
<!DOCTYPE svg PUBLIC "-//W3C//DTD SVG 1.1//EN" "http://www.w3.org/Graphics/SVG/1.1/DTD/svg11.dtd">
<svg version="1.1" id="logo_1_" xmlns="http://www.w3.org/2000/svg" xmlns:xlink="http://www.w3.org/1999/xlink" x="0px" y="0px"
	 width="215px" height="70px" viewBox="0 0 215 70" enable-background="new 0 0 215 70" xml:space="preserve">
<g id="Logo">
	<g>
		<path fill="#FFFFFF" d="M26.234,9.938c0.514-1.299-0.085-2.438-0.085-2.438s-0.666,0.142-1.316,0.747
			c-0.65,0.606-0.25,2.452-0.25,2.452S25.72,11.236,26.234,9.938z M10.52,18.755c0.366,0,0.664-0.297,0.664-0.662
			c0-0.366-0.297-0.663-0.664-0.663c-0.367,0-0.664,0.297-0.664,0.663C9.856,18.458,10.153,18.755,10.52,18.755z M32.42,10.144
			c0.366,0,0.664-0.297,0.664-0.662c0-0.366-0.297-0.663-0.664-0.663c-0.367,0-0.664,0.297-0.664,0.663
			C31.756,9.847,32.053,10.144,32.42,10.144z M46.356,20.08c0-0.366-0.297-0.663-0.664-0.663s-0.664,0.297-0.664,0.663
			c0,0.365,0.297,0.662,0.664,0.662S46.356,20.445,46.356,20.08z M53.656,10.806c0.366,0,0.664-0.297,0.664-0.662
			c0-0.366-0.297-0.662-0.664-0.662c-0.367,0-0.664,0.296-0.664,0.662C52.993,10.509,53.29,10.806,53.656,10.806z M64.938,19.417
			c0.366,0,0.664-0.296,0.664-0.662s-0.297-0.662-0.664-0.662c-0.367,0-0.664,0.296-0.664,0.662S64.571,19.417,64.938,19.417z
			 M77.547,10.806c0.367,0,0.664-0.297,0.664-0.662c0-0.366-0.297-0.662-0.664-0.662s-0.664,0.296-0.664,0.662
			C76.883,10.509,77.18,10.806,77.547,10.806z M84.847,20.08c-0.366,0-0.664,0.296-0.664,0.662s0.297,0.662,0.664,0.662
			c0.367,0,0.664-0.296,0.664-0.662S85.213,20.08,84.847,20.08z M35.074,21.404c0,0.366,0.297,0.663,0.664,0.663
			c0.367,0,0.664-0.297,0.664-0.663c0-0.365-0.297-0.662-0.664-0.662C35.372,20.742,35.074,21.039,35.074,21.404z M205.102,51.441
			c0,0,2.079,1.283,3.762,0.748s2.734-1.289,2.734-1.289s-0.834-1.225-3.314-1.153C205.803,49.817,205.102,51.441,205.102,51.441z
			 M208.283,59.352v-0.203h-0.487c-0.002-0.001-0.003-0.001-0.005-0.002c-0.569-0.184-1.037-0.128-1.399,0.002h-0.129
			c0.367-0.861,0.569-1.78,0.568-2.705c0.004,0,0.007,0.002,0.011,0.002c0.362,0,0.656-0.298,0.656-0.664s-0.294-0.664-0.656-0.664
			c-0.053,0-0.099,0.019-0.147,0.03c-0.288-1.515-1.088-2.937-2.394-3.994V35.92c0.816-0.857,1.356-1.883,1.637-2.969
			c0.218,0.222,0.422,0.335,0.422,0.335s2.33-1.115,2.405-2.394s-0.362-2.177-0.362-2.177s-1.349,0.216-2.312,1.429
			c-0.208-1.327-0.809-2.597-1.789-3.627v-2.555c0.286-0.318,0.504-0.668,0.525-1.036c0.074-1.278-0.363-2.178-0.363-2.178
			s-0.068,0.014-0.162,0.038V17.3h4.646v-1.329h-4.646v-3.985h-1.327v3.985H88.652c0.016-0.068,0.025-0.115,0.025-0.115
			s-0.899-0.441-2.177-0.366c-0.348,0.021-0.681,0.217-0.986,0.481h-1.567c-0.66-1.669-1.76-2.875-3.071-3.609
			c0.476-0.346,1.325-1.208,1.376-3.01c0.071-2.504-1.153-3.345-1.153-3.345s-0.754,1.061-1.289,2.759
			c-0.379,1.204,0.151,2.594,0.495,3.31c-2.111-0.932-4.602-0.745-6.553,0.568c0.263-0.285,0.785-1.023,0.431-2.133
			C73.721,9.063,72.664,8.9,72.664,8.9s-0.328,0.8-0.367,1.906c-0.036,1.011,1.082,1.812,1.277,1.943
			c-1.032,0.742-1.877,1.829-2.427,3.221H58.666c0.1-0.034,0.2-0.068,0.3-0.103c-0.394-1.275-1.038-2.309-1.835-3.103
			c0.417,0.185,0.977,0.229,1.683-0.161c1.713-0.945,1.991-2.711,1.991-2.711s-0.898-0.441-2.176-0.366
			c-1.278,0.076-2.393,2.427-2.393,2.427s0.025,0.044,0.07,0.111c-3.438-2.466-8.72-1.321-10.454,3.401
			c-0.043-0.015-0.087-0.029-0.13-0.044c-0.06,0.195-0.144,0.366-0.216,0.549H33.934c-0.072-0.183-0.156-0.354-0.216-0.549
			c-0.043,0.015-0.086,0.03-0.13,0.044c-2.328-6.341-11.069-6.219-13.114,0.402c0.1,0.034,0.2,0.068,0.3,0.103H8.529v-3.985H7.202
			v3.985H3.883V17.3h3.318v41.849H3.22v1.328h3.982v3.986h1.327v-3.986h35.173v-1.328H8.529V17.821
			c1.317,2.376,3.647,3.578,5.989,3.572c-0.002,0.018-0.01,0.03-0.012,0.048c-0.081,0.785,0.529,1.291,0.529,1.291
			s0.404-0.192,0.708-0.632c0.148-0.214,0.076-0.543-0.036-0.823c0.897-0.16,1.763-0.502,2.546-1.021
			c-0.088,0.743,0.09,1.808,1.558,2.473c2.434,1.104,4.646,0,4.646,0s-0.221-1.325-1.327-2.649
			c-0.746-0.894-2.595-0.883-3.723-0.782c0.531-0.555,0.983-1.223,1.339-1.999h1.747c-0.009,0.043-0.026,0.084-0.026,0.13
			c0,0.366,0.297,0.663,0.664,0.663s0.664-0.297,0.664-0.663c0-0.046-0.017-0.086-0.026-0.13h10.065
			c0.004,0.008,0.009,0.016,0.014,0.024c-0.512,0-1.915,0.167-2.077,1.983c-0.199,2.226,1.297,3.658,1.297,3.658
			s0.992-0.546,1.737-1.788c0.463-0.772,0.053-2.069-0.323-2.94c1.894,2.307,4.93,3.008,7.522,2.092
			c-0.258,0.389-0.591,1.189,0.267,2.047c1.197,1.196,2.735,1.005,2.735,1.005s0.152-0.852-0.216-1.895
			c-0.289-0.819-1.71-1.215-2.312-1.349c1.25-0.551,2.353-1.499,3.133-2.837h11.39c-0.164,0.04-0.333,0.085-0.51,0.14
			c-1.238,0.383-1.964,2.015-1.964,2.015s1.094,0.677,2.622-0.315c1.103-0.716,1.405-1.471,1.49-1.839h0.044
			c2.351,5.184,9.248,5.449,12.08,0.81c0.447,0.464,1.336,1.078,2.903,1.059c2.509-0.029,3.302-1.283,3.302-1.283
			s-0.417-0.27-1.136-0.585h8.08c0.08,0.174,0.167,0.337,0.257,0.5c-0.037,0.071-0.059,0.116-0.059,0.116s0.147,0.267,0.436,0.517
			c2.541,3.693,7.792,3.913,10.675,0.683c-0.035,0.726,0.225,1.676,1.574,2.288c2.433,1.104,4.646,0,4.646,0
			s-0.222-1.324-1.328-2.649c-0.834-0.999-3.05-0.868-4.09-0.743c0.136-0.229,0.268-0.46,0.383-0.712h106.571v4.108
			c-0.425,0.298-0.863,0.721-1.198,1.333c-0.558,1.021-0.223,1.738,0.14,2.153c-0.257-0.11-0.507-0.227-0.787-0.313
			c-0.071,0.212-0.144,0.423-0.216,0.635c0.792,0.246,1.476,0.603,2.062,1.036v5.344c-0.043,0.088-0.071,0.184-0.071,0.288
			s0.028,0.2,0.071,0.288v4.016c-0.181,0.134-0.383,0.248-0.582,0.365c0.064-1.127-0.011-2.675-0.802-3.342
			c-1.313-1.106-2.627-1.327-2.627-1.327s-1.094,2.213,0,4.646c0.283,0.629,0.64,1.019,1.012,1.255
			c-5.274,2.831-4.823,10.753,1.379,12.687c0.072-0.212,0.144-0.423,0.215-0.635c-1.069-0.333-1.939-0.871-2.632-1.529
			c0.681-0.396,1.896-1.225,1.95-2.146c0.074-1.278-0.363-2.177-0.363-2.177s-1.75,0.278-2.687,1.991
			c-0.101,0.185-0.167,0.356-0.215,0.521c-1.405-2.98-0.306-6.884,3.278-8.402c0.735,0.066,1.346-0.237,1.346-0.237
			s0.033-0.185,0.069-0.474c0.236-0.116,0.444-0.259,0.658-0.394v13.29c-0.37-0.183-0.766-0.343-1.188-0.474
			c-0.072,0.212-0.145,0.423-0.217,0.635c0.518,0.161,0.976,0.382,1.405,0.627v8.08h-2.227c-0.655-0.104-1.115-0.022-1.115-0.022
			s-0.001,0.018-0.002,0.022h-31.829v1.328h31.993c0.141,0.444,0.391,0.938,0.833,1.386c0.379,0.383,0.744,0.515,1.071,0.535
			c-0.045,0.015-0.084,0.037-0.13,0.052c0.072,0.211,0.145,0.423,0.217,0.635c0.423-0.131,0.818-0.291,1.188-0.474v1.853h1.327
			v-2.726c0.469-0.38,0.885-0.798,1.223-1.261h0.689c0.341,0.301,0.784,0.574,1.283,0.557c1.098-0.039,1.891-0.368,1.891-0.368
			S209.262,59.864,208.283,59.352z M204.301,27.582c0.809,1.112,1.193,2.443,1.166,3.768c-0.043,0.191-0.054,0.369-0.04,0.532
			c-0.112,1.055-0.479,2.084-1.126,2.974V27.582z M9.005,17.3h10.993C17.658,21.809,11.346,21.809,9.005,17.3z M21.154,15.971
			c1.946-5.956,9.967-5.956,11.913,0H21.154z M34.617,17.3h5.792c-0.009,0.043-0.026,0.084-0.026,0.13
			c0,0.366,0.297,0.663,0.664,0.663c0.367,0,0.664-0.297,0.664-0.663c0-0.046-0.017-0.086-0.026-0.13h3.138
			C42.374,20.926,37.066,20.926,34.617,17.3z M46.372,15.971c0.535-1.638,1.532-2.814,2.735-3.552
			c-0.123,0.26-0.189,0.662,0.237,1.089c0.718,0.718,1.642,0.603,1.642,0.603s0.091-0.511-0.129-1.137
			c-0.166-0.468-0.956-0.708-1.343-0.799c3.146-1.604,7.421-0.337,8.772,3.796H46.372z M59.42,17.3h11.036
			C68.125,21.843,61.751,21.843,59.42,17.3z M71.867,15.971c0.922-2.085,2.642-3.306,4.51-3.664
			c-0.151,0.242-0.319,0.705,0.177,1.201c0.718,0.718,1.641,0.603,1.641,0.603s0.092-0.511-0.129-1.137
			c-0.14-0.395-0.721-0.626-1.133-0.744c2.484-0.246,5.08,0.999,6.293,3.741H71.867z M85.77,18.858
			c0.272-0.02,0.577-0.105,0.916-0.292c0.639-0.353,1.078-0.82,1.377-1.267h7.594C93.628,21.214,88.596,21.737,85.77,18.858z
			 M202.974,61.822c-0.028,0.017-0.054,0.034-0.082,0.05c-0.031-0.172-0.16-0.793-0.423-1.396h0.505V61.822z M202.974,25.448
			c-0.121-0.077-0.244-0.152-0.372-0.223c0.096-0.05,0.222-0.123,0.372-0.213V25.448z M204.301,60.843v-0.366h0.323
			C204.518,60.6,204.419,60.727,204.301,60.843z M205.515,59.148h-1.214v-1.729c0.111,0.207,0.321,0.354,0.571,0.354
			c0.362,0,0.656-0.297,0.656-0.663c0-0.367-0.294-0.664-0.656-0.664c-0.25,0-0.46,0.146-0.571,0.354v-4.752
			C206.226,53.941,206.63,56.833,205.515,59.148z M198.795,40.513c0,0.366,0.294,0.664,0.656,0.664c0.363,0,0.656-0.298,0.656-0.664
			c0-0.367-0.293-0.664-0.656-0.664C199.089,39.849,198.795,40.146,198.795,40.513z M204.872,25.908
			c0,0.366,0.294,0.663,0.656,0.663s0.657-0.297,0.657-0.663c0-0.367-0.295-0.664-0.657-0.664S204.872,25.541,204.872,25.908z
			 M199.619,50.471c0-0.367-0.293-0.664-0.656-0.664c-0.362,0-0.656,0.297-0.656,0.664c0,0.366,0.294,0.663,0.656,0.663
			C199.326,51.134,199.619,50.837,199.619,50.471z M46.163,36.907c0.836-0.401,1.482-1.07,1.482-2.521
			c0-1.987-1.672-3.172-4.237-3.172h-5.282v12.99h5.51c3.211,0,5.129-1.413,5.129-3.896C48.766,38.32,47.569,37.308,46.163,36.907z
			 M41.47,33.965h1.71c0.76,0,1.064,0.439,1.064,1.051s-0.342,0.993-1.102,0.993H41.47V33.965z M43.56,41.453h-2.09V38.53h2.09
			c1.311,0,1.748,0.555,1.748,1.452C45.308,40.881,44.89,41.453,43.56,41.453z M63.487,34.137v-2.923h-9.062v12.99h9.329v-2.923
			h-5.871v-1.356h4.673v-2.77h-4.673v-3.019H63.487z M75.131,30.984l-6.289,13.22h3.382l0.475-1.107c0,0,4.883,0,4.864,0
			l0.494,1.107h3.572l-6.27-13.22C75.302,30.852,75.188,30.852,75.131,30.984z M73.801,40.498l1.292-3.019l1.33,3.019H73.801z
			 M95.381,37.729l-8.112-6.725c-0.209-0.172-0.266-0.076-0.266,0.038v13.162h3.249v-6.476l8.112,6.705
			c0.209,0.172,0.266,0.114,0.266-0.038V31.214h-3.249V37.729z M114.264,40.288c0-1.834-0.874-3.075-3.458-3.936l-1.71-0.572
			c-0.627-0.211-0.912-0.459-0.912-0.956c0-0.516,0.418-0.897,1.254-0.897c1.026,0,1.596,0.382,2.129,0.937l1.975-2.083
			c-0.76-0.897-2.014-1.719-4.293-1.719c-2.299,0-4.408,1.318-4.408,3.878c0,2.14,1.33,3.285,3.21,3.916l1.52,0.516
			c0.855,0.287,1.273,0.554,1.273,1.108c0,0.726-0.607,1.031-1.634,1.031c-1.292,0-2.071-0.63-2.698-1.414l-2.508,1.892
			c0.798,1.07,2.451,2.407,5.357,2.407C112.781,44.396,114.264,42.676,114.264,40.288z M125.736,44.204V34.137h3.42v-2.923h-10.297
			v2.923h3.42v10.067H125.736z M138.236,30.984l-6.289,13.22h3.383l0.475-1.107c0,0,4.883,0,4.863,0l0.494,1.107h3.572l-6.27-13.22
			C138.407,30.852,138.293,30.852,138.236,30.984z M136.906,40.498l1.292-3.019l1.33,3.019H136.906z M153.566,31.214h-3.459v12.99
			h8.949v-2.923h-5.49V31.214z M164.83,31.214v12.99h3.457v-3.381c0.361-0.439,1.103-1.337,1.084-1.337l3.077,4.718h4.085
			l-4.807-7.354l4.293-5.636h-3.742l-3.99,5.388v-5.388H164.83z M66.379,54.947c0-0.919-0.265-1.586-0.794-2.003
			c-0.53-0.417-1.409-0.625-2.637-0.625h-2.993v8.092h1.358V57.69h1.785l1.922,2.721h1.727l-2.107-2.94
			C65.8,57.123,66.379,56.282,66.379,54.947z M63.006,56.452h-1.692v-2.895h1.727c0.729,0,1.236,0.099,1.52,0.296
			c0.284,0.196,0.426,0.56,0.426,1.088s-0.138,0.912-0.415,1.151S63.773,56.452,63.006,56.452z M76.66,52.122
			c-1.197,0-2.203,0.399-3.017,1.198s-1.22,1.795-1.22,2.987s0.407,2.188,1.22,2.986s1.819,1.198,3.017,1.198
			s2.203-0.399,3.016-1.198s1.221-1.794,1.221-2.986s-0.407-2.188-1.221-2.987S77.857,52.122,76.66,52.122z M78.681,58.385
			c-0.549,0.571-1.222,0.857-2.021,0.857s-1.472-0.286-2.021-0.857c-0.549-0.57-0.823-1.264-0.823-2.077
			c0-0.814,0.274-1.507,0.823-2.078s1.222-0.856,2.021-0.856s1.472,0.285,2.021,0.856s0.823,1.264,0.823,2.078
			C79.504,57.121,79.229,57.814,78.681,58.385z M89.439,52.319l-3.546,8.092h1.45l0.806-1.841h4.029l0.806,1.841h1.451l-3.546-8.092
			H89.439z M88.703,57.309l1.462-3.334l1.462,3.334H88.703z M103.237,55.677c-0.825-0.201-1.364-0.389-1.618-0.562
			c-0.253-0.174-0.38-0.425-0.38-0.753s0.127-0.573,0.38-0.735c0.253-0.162,0.578-0.243,0.973-0.243c0.395,0,0.796,0.07,1.203,0.209
			s0.729,0.316,0.967,0.532l0.725-1.03c-0.368-0.309-0.806-0.548-1.312-0.718c-0.507-0.17-1.017-0.255-1.531-0.255
			c-0.798,0-1.468,0.203-2.009,0.608c-0.541,0.405-0.812,0.981-0.812,1.73c0,0.748,0.238,1.304,0.714,1.667
			c0.238,0.192,0.51,0.349,0.817,0.469c0.307,0.119,0.756,0.251,1.347,0.394c0.591,0.143,1.007,0.301,1.249,0.475
			s0.362,0.417,0.362,0.729s-0.128,0.563-0.385,0.752c-0.257,0.189-0.604,0.284-1.042,0.284c-0.875,0-1.719-0.355-2.533-1.065
			l-0.852,1.03c0.975,0.872,2.091,1.309,3.35,1.309c0.859,0,1.554-0.221,2.084-0.66c0.529-0.44,0.794-1.013,0.794-1.719
			s-0.209-1.241-0.627-1.604C104.684,56.158,104.062,55.877,103.237,55.677z M111.256,53.569h2.44v6.842h1.358v-6.842h2.441v-1.25
			h-6.24V53.569z M124.933,56.961h3.856v-1.215h-3.856v-2.142h4.294v-1.285h-5.652v8.092h5.791v-1.285h-4.433V56.961z
			 M142.133,54.947c0-0.919-0.265-1.586-0.795-2.003c-0.529-0.417-1.408-0.625-2.636-0.625h-2.993v8.092h1.358V57.69h1.784
			l1.923,2.721h1.728l-2.107-2.94C141.553,57.123,142.133,56.282,142.133,54.947z M138.76,56.452h-1.692v-2.895h1.727
			c0.729,0,1.235,0.099,1.521,0.296c0.283,0.196,0.426,0.56,0.426,1.088s-0.139,0.912-0.415,1.151S139.527,56.452,138.76,56.452z
			 M151.775,55.677c-0.826-0.201-1.365-0.389-1.618-0.562c-0.253-0.174-0.38-0.425-0.38-0.753s0.127-0.573,0.38-0.735
			s0.577-0.243,0.973-0.243s0.796,0.07,1.203,0.209s0.729,0.316,0.968,0.532l0.725-1.03c-0.368-0.309-0.806-0.548-1.312-0.718
			c-0.506-0.17-1.018-0.255-1.531-0.255c-0.799,0-1.468,0.203-2.009,0.608s-0.812,0.981-0.812,1.73c0,0.748,0.238,1.304,0.714,1.667
			c0.237,0.192,0.511,0.349,0.817,0.469c0.307,0.119,0.756,0.251,1.347,0.394s1.007,0.301,1.249,0.475s0.363,0.417,0.363,0.729
			s-0.129,0.563-0.387,0.752c-0.257,0.189-0.604,0.284-1.041,0.284c-0.875,0-1.72-0.355-2.533-1.065l-0.852,1.03
			c0.975,0.872,2.092,1.309,3.35,1.309c0.859,0,1.555-0.221,2.084-0.66c0.529-0.44,0.795-1.013,0.795-1.719
			s-0.209-1.241-0.628-1.604C153.221,56.158,152.6,55.877,151.775,55.677z"/>
	</g>
</g>
</svg>
