<?xml version="1.0" encoding="utf-8"?>
<!-- Generator: Adobe Illustrator 16.0.0, SVG Export Plug-In . SVG Version: 6.00 Build 0)  -->
<!DOCTYPE svg PUBLIC "-//W3C//DTD SVG 1.1//EN" "http://www.w3.org/Graphics/SVG/1.1/DTD/svg11.dtd">
<svg version="1.1" id="icon_1_" xmlns="http://www.w3.org/2000/svg" xmlns:xlink="http://www.w3.org/1999/xlink" x="0px" y="0px"
	 width="270px" height="270px" viewBox="0 0 270 270" enable-background="new 0 0 270 270" xml:space="preserve">
<g id="Ellipse_5">
	<g>
		<circle fill="#F7F7F7" cx="135" cy="135" r="132"/>
	</g>
</g>
<g id="molecules_1_">
	<g id="Ellipse_6" opacity="0.8">
		<g>
			<ellipse fill="#E26D5F" cx="147.571" cy="177.964" rx="31.877" ry="31.836"/>
		</g>
	</g>
	<g id="Ellipse_7" opacity="0.8">
		<g>
			<ellipse fill="#FFB300" cx="223" cy="129.538" rx="22" ry="21.971"/>
		</g>
	</g>
	<g id="Ellipse_8">
		<g>
			<ellipse fill="#E5E5E5" cx="82.469" cy="129.986" rx="22.449" ry="22.419"/>
		</g>
	</g>
	<g id="Ellipse_8_copy_5">
		<g>
			<ellipse fill="#E5E5E5" cx="82.469" cy="129.986" rx="22.449" ry="22.419"/>
		</g>
	</g>
	<g id="Ellipse_8_copy_8">
		<g>
			<ellipse fill="#E5E5E5" cx="172.266" cy="99.495" rx="17.959" ry="17.936"/>
		</g>
	</g>
	<g id="Ellipse_8_copy_9">
		<g>
			<ellipse fill="#F0F0F0" cx="192.918" cy="116.534" rx="10.775" ry="10.762"/>
		</g>
	</g>
	<g id="Ellipse_8_copy_10">
		<g>
			<ellipse fill="#F0F0F0" cx="143.531" cy="122.812" rx="10.776" ry="10.762"/>
		</g>
	</g>
	<g id="Ellipse_8_copy_11">
		<g>
			<ellipse fill="#E5E5E5" cx="145.775" cy="125.951" rx="6.734" ry="6.726"/>
		</g>
	</g>
	<g id="Ellipse_8_copy_12">
		<g>
			<ellipse fill="#E5E5E5" cx="191.571" cy="134.021" rx="6.734" ry="6.726"/>
		</g>
	</g>
	<g id="Ellipse_8_copy_13">
		<g>
			<ellipse fill="#F0F0F0" cx="185.285" cy="169.893" rx="6.734" ry="6.726"/>
		</g>
	</g>
	<g id="Ellipse_8_copy_14">
		<g>
			<ellipse fill="#F0F0F0" cx="216.715" cy="100.84" rx="6.735" ry="6.726"/>
		</g>
	</g>
	<g id="Ellipse_8_copy_15" opacity="0.8">
		<g>
			<circle fill="#FFB300" cx="207.285" cy="98.599" r="3.587"/>
		</g>
	</g>
	<g id="Ellipse_8_copy_6">
		<g>
			<ellipse fill="#E5E5E5" cx="124.673" cy="155.993" rx="14.367" ry="14.349"/>
		</g>
	</g>
	<g id="Ellipse_8_copy_2">
		<g>
			<ellipse fill="#E5E5E5" cx="43.408" cy="150.164" rx="18.408" ry="18.384"/>
		</g>
	</g>
	<g id="Ellipse_8_copy">
		<g>
			<ellipse fill="#F0F0F0" cx="68.102" cy="140.748" rx="13.469" ry="13.452"/>
		</g>
	</g>
	<g id="Ellipse_8_copy_7" opacity="0.8">
		<g>
			<ellipse fill="#EA80FC" cx="107.163" cy="141.196" rx="11.224" ry="11.209"/>
		</g>
	</g>
	<g id="Ellipse_8_copy_3" opacity="0.8">
		<g>
			<ellipse fill="#DD4B39" cx="35.775" cy="129.089" rx="8.979" ry="8.968"/>
		</g>
	</g>
	<g id="Ellipse_8_copy_4">
		<g>
			<ellipse fill="#F0F0F0" cx="133.204" cy="162.719" rx="7.633" ry="7.623"/>
		</g>
	</g>
	<g id="Ellipse_7_copy" opacity="0.8">
		<g>
			<circle fill="#EA80FC" cx="145.998" cy="79.999" r="17.001"/>
		</g>
	</g>
</g>
</svg>
