<?xml version="1.0" encoding="utf-8"?>
<!-- Generator: Adobe Illustrator 16.0.0, SVG Export Plug-In . SVG Version: 6.00 Build 0)  -->
<!DOCTYPE svg PUBLIC "-//W3C//DTD SVG 1.1//EN" "http://www.w3.org/Graphics/SVG/1.1/DTD/svg11.dtd">
<svg version="1.1" xmlns="http://www.w3.org/2000/svg" xmlns:xlink="http://www.w3.org/1999/xlink" x="0px" y="0px" width="150px"
	 height="150px" viewBox="0 0 150 150" enable-background="new 0 0 150 150" xml:space="preserve">
<g id="Ellipse_9_copy_1_" enable-background="new    ">
	<g id="Ellipse_9_copy">
		<g>
			<ellipse fill="#F3F3F3" cx="75.5" cy="74.531" rx="72.5" ry="72.519"/>
		</g>
	</g>
</g>
<g id="Ellipse_9_copy_10_1_" enable-background="new    ">
	<g id="Ellipse_9_copy_10">
		<g>
			<path fill="#252525" d="M98,66.245v-6.248h3v-5h-3.047C96.009,43.563,87.286,37.386,78,36.447v-2.449h1.111L82,28.999H69
				l2.889,4.999H73v2.449c-9.286,0.939-18.009,7.116-19.953,18.55h-7.208l-1.133,1.17l-0.156-0.156l-3.536,3.536l0.213,0.213
				L41,59.997h0.464L53,71.533v49.523h5v-6.061h35v6.061h5V96.748C113.993,93.087,113.993,69.907,98,66.245z M53,64.461
				l-4.464-4.464H53V64.461z M92.841,54.997H58.159C62.062,36.675,88.938,36.675,92.841,54.997z M73,101.996
				c-1.104,0-2,0.895-2,1.999c0,1.105,0.896,2,2,2v4h-1c0-1.104-0.896-2-2-2s-2,0.896-2,2h-2c0-1.104-0.896-2-2-2s-2,0.896-2,2h-2
				c0-1.104-0.896-2-2-2v-7.999c1.104,0,2-0.896,2-2s-0.896-2-2-2V70.997h15V101.996z M73,65.997H58v-6h15V65.997z M93,101.996
				c-1.104,0-2,0.895-2,1.999c0,1.105,0.896,2,2,2v4h-1c0-1.104-0.896-2-2-2s-2,0.896-2,2h-2c0-1.104-0.896-2-2-2s-2,0.896-2,2h-2
				c0-1.104-0.896-2-2-2v-7.999c1.104,0,2-0.896,2-2s-0.896-2-2-2V70.997h15V101.996z M93,65.997H78v-6h15V65.997z M98,91.541
				V71.452C107.317,74.639,107.317,88.354,98,91.541z M90,99.996c1.104,0,2-0.896,2-2s-0.896-2-2-2s-2,0.896-2,2
				S88.896,99.996,90,99.996z M84,99.996c1.104,0,2-0.896,2-2s-0.896-2-2-2s-2,0.896-2,2S82.896,99.996,84,99.996z M70,99.996
				c1.104,0,2-0.896,2-2s-0.896-2-2-2s-2,0.896-2,2S68.896,99.996,70,99.996z M64,99.996c1.104,0,2-0.896,2-2s-0.896-2-2-2
				s-2,0.896-2,2S62.896,99.996,64,99.996z M85,103.995c0,1.105,0.896,2,2,2s2-0.895,2-2c0-1.104-0.896-1.999-2-1.999
				S85,102.891,85,103.995z M79,103.995c0,1.105,0.896,2,2,2s2-0.895,2-2c0-1.104-0.896-1.999-2-1.999S79,102.891,79,103.995z
				 M65,103.995c0,1.105,0.896,2,2,2s2-0.895,2-2c0-1.104-0.896-1.999-2-1.999S65,102.891,65,103.995z M59,103.995
				c0,1.105,0.896,2,2,2s2-0.895,2-2c0-1.104-0.896-1.999-2-1.999S59,102.891,59,103.995z"/>
		</g>
	</g>
</g>
</svg>
