<?xml version="1.0" encoding="utf-8"?>
<!-- Generator: Adobe Illustrator 16.0.0, SVG Export Plug-In . SVG Version: 6.00 Build 0)  -->
<!DOCTYPE svg PUBLIC "-//W3C//DTD SVG 1.1//EN" "http://www.w3.org/Graphics/SVG/1.1/DTD/svg11.dtd">
<svg version="1.1" xmlns="http://www.w3.org/2000/svg" xmlns:xlink="http://www.w3.org/1999/xlink" x="0px" y="0px" width="150px"
	 height="150px" viewBox="0 0 150 150" enable-background="new 0 0 150 150" xml:space="preserve">
<g id="Ellipse_9_copy_1_" enable-background="new    ">
	<g id="Ellipse_9_copy">
		<g>
			<ellipse fill="#F3F3F3" cx="75.5" cy="74.531" rx="72.5" ry="72.519"/>
		</g>
	</g>
</g>
<g id="Rectangle_9_copy_24_1_" enable-background="new    ">
	<g id="Rectangle_9_copy_24">
		<g>
			<path fill="#252525" d="M100,86.034v-0.046c15.466-2.696,15.979-24.592,1.543-28.568l2.466-5.395H104v-5.002H39v5.002h-0.259
				l18.186,39.01H39v5.001h22v7.002h21v-7.002h22v-5.001H86.18l2.285-5.001H100z M99.198,81.032h-8.447l8.665-18.959
				C109.652,64.12,109.582,79.172,99.198,81.032z M66,98.037v-2.001h11v2.001H66z M61.927,91.035l-18.186-39.01h55.365
				l-17.829,39.01H61.927z"/>
		</g>
	</g>
</g>
</svg>
