<?xml version="1.0" encoding="utf-8"?>
<!-- Generator: Adobe Illustrator 16.0.0, SVG Export Plug-In . SVG Version: 6.00 Build 0)  -->
<!DOCTYPE svg PUBLIC "-//W3C//DTD SVG 1.1//EN" "http://www.w3.org/Graphics/SVG/1.1/DTD/svg11.dtd">
<svg version="1.1" xmlns="http://www.w3.org/2000/svg" xmlns:xlink="http://www.w3.org/1999/xlink" x="0px" y="0px" width="150px"
	 height="150px" viewBox="0 0 150 150" enable-background="new 0 0 150 150" xml:space="preserve">
<g id="Ellipse_9_copy_1_" enable-background="new    ">
	<g id="Ellipse_9_copy">
		<g>
			<ellipse fill="#F3F3F3" cx="75.5" cy="74.531" rx="72.5" ry="72.519"/>
		</g>
	</g>
</g>
<g id="Rectangle_9_copy_11_1_" enable-background="new    ">
	<g id="Rectangle_9_copy_11">
		<g>
			<path fill="#252525" d="M72.996,60.027l4.18,10.002H93.91l4.094-10.002H108V38.021H43v73.019h65V99.037H97.401
				c4.472-5.328,4.791-13.072,0.955-18.745c2.633,0.462,4.577,2.748,4.517,5.546c1.695-0.037,3.391-0.074,5.087-0.11
				c0.125-5.771-4.283-10.377-9.96-10.591v-0.105H69v5.001h2.822c-4.024,5.693-3.764,13.595,0.776,19.005H63v-39.01H72.996z
				 M91.08,65.028H80.064l-2.09-5.001h15.152L91.08,65.028z M48,43.022h55v5.002H48V43.022z M48,60.027h10v39.01H48V60.027z
				 M79.106,80.032h11.787c6.976,4.34,6.692,14.726-0.894,18.535c0.081,0.156,0.162,0.313,0.243,0.47H79.757
				c0.081-0.156,0.162-0.313,0.243-0.47C72.415,94.758,72.131,84.372,79.106,80.032z M103,104.038v2.001H48v-2.001H103z M48,55.025
				v-2h55v2H48z M86.5,44.023c-0.828,0-1.5,0.671-1.5,1.5c0,0.828,0.672,1.5,1.5,1.5s1.5-0.672,1.5-1.5
				C88,44.694,87.328,44.023,86.5,44.023z M96.5,44.023c-0.828,0-1.5,0.671-1.5,1.5c0,0.828,0.672,1.5,1.5,1.5s1.5-0.672,1.5-1.5
				C98,44.694,97.328,44.023,96.5,44.023z M91.5,44.023c-0.828,0-1.5,0.671-1.5,1.5c0,0.828,0.672,1.5,1.5,1.5s1.5-0.672,1.5-1.5
				C93,44.694,92.328,44.023,91.5,44.023z M87,84.033h-8v3.001h8V84.033z M87,88.034h-8v3.001h8V88.034z M87,92.035h-8v3.001h8
				V92.035z"/>
		</g>
	</g>
</g>
</svg>
